<?xml version="1.0" encoding="UTF-8"?>
<svg width="40px" height="57px" viewBox="0 0 40 57" version="1.1" xmlns="http://www.w3.org/2000/svg" xmlns:xlink="http://www.w3.org/1999/xlink">
    <!-- Generator: Sketch 52.5 (67469) - http://www.bohemiancoding.com/sketch -->
    <title>mouse</title>
    <desc>Created with Sketch.</desc>
    <g id="Page-1" stroke="none" stroke-width="1" fill="none" fill-rule="evenodd">
        <g id="Single-Page" transform="translate(-700.000000, -630.000000)">
            <g id="mouse" transform="translate(686.000000, 624.000000)">
                <g id="Bounding_Boxes">
                    <polygon id="Shape" points="0 0 68 0 68 68 0 68"></polygon>
                </g>
                <rect id="c2/mouse" fill="#6153CC" x="31" y="17" width="6" height="17" rx="2"></rect>
                <path d="M31.1428571,6 L36.8571429,6 C46.3242857,6 54,13.656525 54,23.1 L54,45.9 C54,55.343475 46.3242857,63 36.8571429,63 L31.1428571,63 C21.6757143,63 14,55.343475 14,45.9 L14,23.1 C14,13.656525 21.6757143,6 31.1428571,6 Z M31.1428571,11.7 C24.8310314,11.7 19.7142857,16.8039539 19.7142857,23.1 L19.7142857,45.9 C19.7142857,52.1960461 24.8310314,57.3 31.1428571,57.3 L36.8571429,57.3 C43.1689686,57.3 48.2857143,52.1960461 48.2857143,45.9 L48.2857143,23.1 C48.2857143,16.8039539 43.1689686,11.7 36.8571429,11.7 L31.1428571,11.7 Z" id="c1/mouse" fill="#E6E1FF" fill-rule="nonzero"></path>
            </g>
        </g>
    </g>
</svg>