<?xml version="1.0" encoding="UTF-8"?>
<svg width="506px" height="164px" viewBox="0 0 506 164" version="1.1" xmlns="http://www.w3.org/2000/svg" xmlns:xlink="http://www.w3.org/1999/xlink">
    <!-- Generator: Sketch 52.5 (67469) - http://www.bohemiancoding.com/sketch -->
    <title>Group</title>
    <desc>Created with Sketch.</desc>
    <g id="Page-1" stroke="none" stroke-width="1" fill="none" fill-rule="evenodd">
        <g id="Single-Page" transform="translate(-467.000000, -370.000000)" fill="#E6E1FF">
            <g id="Group" transform="translate(467.000000, 370.000000)">
                <g id="logos/@l-white">
                    <path d="M103.902176,72.1582887 L104.090137,72.0558509 L112.656191,85.5026827 L112.647899,85.5051812 L153.830747,148.371993 L161.031319,159.352823 L164,163.88507 L17.1636175,163.88507 L17.1636175,164 L0.00110296207,164 L0.00110296207,126.187969 L0.00939536724,126.187969 L95.0127173,76.780481 L103.835836,72.0558509 L103.902176,72.1582887 Z M17.1636175,135.167514 L17.1636175,148.371993 L133.884749,148.371993 L117.606757,123.522088 L92.4393075,136.611637 L58.0258261,136.611637 L108.863798,110.172697 L97.7685599,93.2429809 L17.1636175,135.167514 Z M90.4180734,0.00674098222 C90.4180734,0.00674098222 120.512394,-1.20873052 134.759906,29.0029892 C134.759906,29.0029892 146.329978,56.1160069 123.589658,77.9519774 C122.977514,78.5547113 122.017937,79.1349363 122.017937,79.1349363 L113.081187,65.497146 C113.081187,65.497146 113.318323,65.3045713 113.709875,64.9344277 C119.061998,60.0750426 120.550997,52.5296156 120.550997,52.5296156 L120.54824,52.5421205 C121.802859,47.6852364 121.761498,41.265246 118.309227,33.1871123 C118.309227,33.1871123 113.290749,17.1759012 90.2195402,15.5352648 L17.1234862,15.5352648 L17.1234862,83.5891642 L90.6083343,44.614045 C90.6083343,44.614045 91.4879466,43.1959949 86.141338,43.1959949 L47.6203875,43.1959949 L47.6203875,53.4849862 L30.4969013,62.5660089 L30.4969013,27.6674711 L84.5337707,27.6674711 C84.5337707,27.6674711 84.8922334,27.6524653 85.5126496,27.6674711 L86.141338,27.6674711 L86.141338,27.6874789 C90.429103,27.8575448 102.159105,29.1580493 106.601284,38.1015187 C106.601284,38.1015187 108.881659,43.1209658 107.59395,49.1683117 C107.003866,51.1840937 105.032321,54.9530557 98.4917558,58.4244023 L17.1234862,101.581144 L0,110.649662 L0,0.00674098222 L90.4180734,0.00674098222 Z" id="black-copy-3"></path>
                </g>
                <g id="text-logo/@white" transform="translate(184.000000, 0.000000)">
                    <path d="M62.0047912,100.207459 C62.0047912,114.840404 50.8085602,127.045516 32.6688541,127.045516 C13.8387179,127.045516 0.732786344,113.106238 0.732786344,95.7914414 C0.732786344,78.4766453 13.8387179,64.5373673 32.3211907,64.5373673 C43.6055617,64.5373673 53.4111391,70.4237629 58.4449137,79.1727543 L54.3659894,81.5932597 C50.3752051,73.9726977 41.869693,68.9533852 32.3211907,68.9533852 C16.3531568,68.9533852 5.33320579,80.9020357 5.33320579,95.7914414 C5.33320579,110.68329 16.3531568,122.629498 32.6688541,122.629498 C47.4225143,122.629498 56.3613815,113.541 57.3186801,102.198087 L31.5401722,102.198087 L31.5401722,97.8699986 L62.0047912,97.8699986 L62.0047912,100.207459 Z M106.872224,106.351782 L93.3329376,71.1164525 L79.793651,106.351782 L106.872224,106.351782 Z M108.519953,110.682313 L78.0577823,110.682313 L72.1572975,126.094411 L67.2949063,126.094411 L90.9041904,65.491403 L95.7616849,65.491403 L119.280381,126.094411 L114.420438,126.094411 L108.519953,110.682313 Z M134.902465,96.9181611 L154.256545,96.9181611 C161.633375,96.9181611 167.619551,90.8607913 167.619551,83.4112034 C167.619551,75.8810135 161.633375,69.8163162 154.256545,69.8163162 L134.902465,69.8163162 L134.902465,96.9181611 Z M154.080265,101.243807 L134.902465,101.243807 L134.902465,126.093678 L130.304494,126.093678 L130.304494,65.4906703 L154.256545,65.4906703 C164.147814,65.4906703 172.219971,73.5411101 172.219971,83.4112034 C172.219971,91.6350599 166.579009,98.5643979 158.856964,100.640513 L173.955839,126.093678 L168.662541,126.093678 L154.080265,101.243807 Z M182.200359,95.7924184 C182.200359,78.4751798 195.306291,64.5383442 213.791212,64.5383442 C224.984994,64.5383442 234.790572,70.2513233 239.826795,79.0809167 L235.745422,81.4208201 C231.754638,73.9712322 223.337266,68.9543622 213.791212,68.9543622 C197.820729,68.9543622 186.800778,80.9005702 186.800778,95.7924184 C186.800778,110.684267 197.820729,122.628032 213.791212,122.628032 C223.422957,122.628032 231.926021,117.52079 235.919254,109.902671 L240.000626,112.240131 C235.050095,121.160097 225.158826,127.046493 213.791212,127.046493 C195.306291,127.046493 182.200359,113.107215 182.200359,95.7924184 Z M253.017683,126.094899 L253.017683,65.4918915 L257.615654,65.4918915 L257.615654,126.094899 L253.017683,126.094899 Z M308.211699,106.351782 L294.674861,71.1164525 L281.135574,106.351782 L308.211699,106.351782 Z M309.861876,110.682313 L279.397257,110.682313 L273.499221,126.094411 L268.634381,126.094411 L292.243665,65.491403 L297.103608,65.491403 L320.622304,126.094411 L315.762361,126.094411 L309.861876,110.682313 Z M1.80907394,154.063827 C1.80907394,148.59754 5.94675828,144.193734 11.781138,144.193734 C15.3165322,144.193734 18.4136746,146.001175 20.0026434,148.790496 L18.7148197,149.528128 C17.4539277,147.176012 14.7974854,145.590837 11.781138,145.590837 C6.7424668,145.590837 3.26093596,149.362038 3.26093596,154.063827 C3.26093596,158.768059 6.7424668,162.541703 11.781138,162.541703 C14.8244171,162.541703 17.5102394,160.927218 18.7711314,158.516483 L20.0565067,159.256557 C18.4944697,162.072745 15.3728439,163.933921 11.781138,163.933921 C5.94675828,163.933921 1.80907394,159.530115 1.80907394,154.063827 Z M27.6779254,154.419209 L33.7914152,154.419209 C36.1173324,154.419209 38.0098946,152.509184 38.0098946,150.154626 C38.0098946,147.778085 36.1173324,145.863175 33.7914152,145.863175 L27.6779254,145.863175 L27.6779254,154.419209 Z M33.7326552,155.787003 L27.6779254,155.787003 L27.6779254,163.632273 L26.2285117,163.632273 L26.2285117,144.497824 L33.7914152,144.497824 C36.913041,144.497824 39.4617566,147.040454 39.4617566,150.154626 C39.4617566,152.75099 37.6793695,154.939459 35.2408289,155.594046 L40.0101834,163.632273 L38.3379713,163.632273 L33.7326552,155.787003 Z M56.8079576,162.266679 L56.8079576,163.634472 L45.7659716,163.634472 L45.7659716,144.49758 L56.6732992,144.49758 L56.6732992,145.86293 L47.2178336,145.86293 L47.2178336,153.300306 L55.9877657,153.300306 L55.9877657,154.665656 L47.2178336,154.665656 L47.2178336,162.266679 L56.8079576,162.266679 Z M73.9105494,157.398312 L69.6333101,146.27278 L65.3609674,157.398312 L73.9105494,157.398312 Z M74.4295962,158.768547 L64.8149889,158.768547 L62.9493584,163.633983 L61.4167014,163.633983 L68.8669815,144.497091 L70.4045352,144.497091 L77.830332,163.633983 L76.2952267,163.633983 L74.4295962,158.768547 Z M93.7804931,145.863419 L87.752695,145.863419 L87.752695,163.632518 L86.2714529,163.632518 L86.2714529,145.863419 L80.2436548,145.863419 L80.2436548,144.495626 L93.7804931,144.495626 L93.7804931,145.863419 Z M99.5365261,163.633495 L99.5365261,144.496603 L100.988388,144.496603 L100.988388,163.633495 L99.5365261,163.633495 Z M106.470453,144.496603 L108.059421,144.496603 L114.390813,161.745452 L120.746688,144.496603 L122.308725,144.496603 L115.154693,163.633495 L113.622036,163.633495 L106.470453,144.496603 Z M138.861911,162.266679 L138.861911,163.634472 L127.819925,163.634472 L127.819925,144.49758 L138.724804,144.49758 L138.724804,145.86293 L129.271787,145.86293 L129.271787,153.300306 L138.03927,153.300306 L138.03927,154.665656 L129.271787,154.665656 L129.271787,162.266679 L138.861911,162.266679 Z M170.049523,154.063827 C170.049523,149.528128 166.95238,145.864396 162.432756,145.864396 L156.676723,145.864396 L156.676723,162.265702 L162.432756,162.265702 C166.95238,162.265702 170.049523,158.60197 170.049523,154.063827 Z M171.474453,154.063827 C171.474453,159.339601 167.718709,163.633495 162.432756,163.633495 L155.224861,163.633495 L155.224861,144.496603 L162.432756,144.496603 C167.718709,144.496603 171.474453,148.790496 171.474453,154.063827 Z M188.930829,162.266679 L188.930829,163.634472 L177.888843,163.634472 L177.888843,144.49758 L188.793722,144.49758 L188.793722,145.86293 L179.340705,145.86293 L179.340705,153.300306 L188.110637,153.300306 L188.110637,154.665656 L179.340705,154.665656 L179.340705,162.266679 L188.930829,162.266679 Z M193.208313,144.496603 L194.797282,144.496603 L201.126225,161.745452 L207.484548,144.496603 L209.046585,144.496603 L201.895002,163.633495 L200.359897,163.633495 L193.208313,144.496603 Z M225.599526,162.266679 L225.599526,163.634472 L214.55754,163.634472 L214.55754,144.49758 L225.46242,144.49758 L225.46242,145.86293 L216.009402,145.86293 L216.009402,153.300306 L224.776886,153.300306 L224.776886,154.665656 L216.009402,154.665656 L216.009402,162.266679 L225.599526,162.266679 Z M242.399749,162.266679 L242.399749,163.634472 L231.903741,163.634472 L231.903741,144.49758 L233.355603,144.49758 L233.355603,162.266679 L242.399749,162.266679 Z M264.020986,154.063827 C264.020986,149.362038 260.321553,145.590837 255.581579,145.590837 C250.841604,145.590837 247.142172,149.362038 247.142172,154.063827 C247.142172,158.768059 250.841604,162.541703 255.581579,162.541703 C260.321553,162.541703 264.020986,158.768059 264.020986,154.063827 Z M245.69031,154.063827 C245.69031,148.59754 250.045896,144.193734 255.581579,144.193734 C261.117262,144.193734 265.472848,148.59754 265.472848,154.063827 C265.472848,159.530115 261.117262,163.933921 255.581579,163.933921 C250.045896,163.933921 245.69031,159.530115 245.69031,154.063827 Z M282.932162,150.428673 C282.932162,147.778574 281.042048,145.863663 278.412537,145.863663 L273.342038,145.863663 L273.342038,154.964373 L278.412537,154.964373 C281.042048,154.964373 282.932162,153.054347 282.932162,150.428673 Z M284.386472,150.428673 C284.386472,153.789536 281.864688,156.334608 278.412537,156.334608 L273.342038,156.334608 L273.342038,163.632762 L271.890176,163.632762 L271.890176,144.49587 L278.412537,144.49587 C281.864688,144.49587 284.386472,147.0385 284.386472,150.428673 Z M301.761074,162.266679 L301.761074,163.634472 L290.71664,163.634472 L290.71664,144.49758 L301.623967,144.49758 L301.623967,145.86293 L292.17095,145.86293 L292.17095,153.300306 L300.938434,153.300306 L300.938434,154.665656 L292.17095,154.665656 L292.17095,162.266679 L301.761074,162.266679 Z M309.517151,154.419209 L315.628192,154.419209 C317.95411,154.419209 319.846672,152.509184 319.846672,150.154626 C319.846672,147.778085 317.95411,145.863175 315.628192,145.863175 L309.517151,145.863175 L309.517151,154.419209 Z M315.571881,155.787003 L309.517151,155.787003 L309.517151,163.632273 L308.065289,163.632273 L308.065289,144.497824 L315.628192,144.497824 C318.749818,144.497824 321.298534,147.040454 321.298534,150.154626 C321.298534,152.75099 319.516147,154.939459 317.077606,155.594046 L321.849409,163.632273 L320.174749,163.632273 L315.571881,155.787003 Z M8.27536867,25.4802772 L20.1448916,25.4802772 C24.5347543,25.4802772 28.0603551,21.7481558 28.0603551,17.0830041 C28.0603551,12.3445777 24.5347543,8.68573095 20.1448916,8.68573095 L8.27536867,8.68573095 L8.27536867,25.4802772 Z M18.058911,32.8736879 L8.27536867,32.8736879 L8.27536867,51.1776916 L2.27373675e-13,51.1776916 L2.27373675e-13,0.933274597 L20.1448916,0.933274597 C29.1400704,0.933274597 36.3357238,8.1141888 36.3357238,17.0830041 C36.3357238,23.5433844 32.2347645,29.2881157 26.3342797,31.6548864 L37.7728958,51.1776916 L28.7091636,51.1776916 L18.058911,32.8736879 Z M85.189779,26.0549946 C85.189779,15.7208286 77.4187671,8.03920442 67.343873,8.03920442 C57.2738756,8.03920442 49.5028637,15.7208286 49.5028637,26.0549946 C49.5028637,36.3916031 57.2738756,44.0732273 67.343873,44.0732273 C77.4187671,44.0732273 85.189779,36.3916031 85.189779,26.0549946 Z M41.227495,26.0549946 C41.227495,11.4855547 52.8105628,0.000976995129 67.343873,0.000976995129 C81.9506332,0.000976995129 93.4626993,11.4855547 93.4626993,26.0549946 C93.4626993,40.626877 81.9506332,52.1114547 67.343873,52.1114547 C52.8105628,52.1114547 41.227495,40.626877 41.227495,26.0549946 Z M136.92283,26.0549946 C136.92283,16.0798743 130.375985,8.82812799 120.805448,8.82812799 L109.29583,8.82812799 L109.29583,43.2843037 L120.805448,43.2843037 C130.375985,43.2843037 136.92283,35.9617252 136.92283,26.0549946 Z M144.909295,26.0549946 C144.909295,40.0528923 134.692398,51.1784244 120.805448,51.1784244 L101.020461,51.1784244 L101.020461,0.934007344 L120.805448,0.934007344 C134.692398,0.934007344 144.909295,11.9862647 144.909295,26.0549946 Z M160.740222,25.4802772 L172.612194,25.4802772 C176.999608,25.4802772 180.525209,21.7481558 180.525209,17.0830041 C180.525209,12.3445777 176.999608,8.68573095 172.612194,8.68573095 L160.740222,8.68573095 L160.740222,25.4802772 Z M170.523765,32.8736879 L160.740222,32.8736879 L160.740222,51.1776916 L152.464854,51.1776916 L152.464854,0.933274597 L172.612194,0.933274597 C181.604924,0.933274597 188.800578,8.1141888 188.800578,17.0830041 C188.800578,23.5433844 184.699618,29.2881157 178.799134,31.6548864 L190.23775,51.1776916 L181.171569,51.1776916 L170.523765,32.8736879 Z M196.571345,51.1789129 L196.571345,0.934495841 L204.846713,0.934495841 L204.846713,51.1789129 L196.571345,51.1789129 Z M263.916932,28.6406122 C263.916932,42.3502964 253.986489,52.1104777 239.237726,52.1104777 C223.553698,52.1104777 212.401537,40.4817932 212.401537,26.0540176 C212.401537,11.6286845 223.69815,1.70530257e-13 238.80437,1.70530257e-13 C248.374908,1.70530257e-13 256.505825,4.80925852 260.748787,11.9120131 L253.629032,16.0056227 C251.036247,11.3429135 245.424665,8.03822743 238.80437,8.03822743 C228.159015,8.03822743 220.676906,15.8639584 220.676906,26.1297347 C220.676906,36.2465193 228.012114,44.0722503 239.308727,44.0722503 C248.445909,44.0722503 254.059939,39.3362664 255.570561,32.5876725 L238.733369,32.5876725 L238.733369,25.1967044 L263.916932,25.1967044 L263.916932,28.6406122 Z M312.917152,26.0549946 C312.917152,15.7208286 305.14614,8.03920442 295.071246,8.03920442 C285.001249,8.03920442 277.230237,15.7208286 277.230237,26.0549946 C277.230237,36.3916031 285.001249,44.0732273 295.071246,44.0732273 C305.14614,44.0732273 312.917152,36.3916031 312.917152,26.0549946 Z M268.954868,26.0549946 C268.954868,11.4855547 280.540384,0.000976995129 295.071246,0.000976995129 C309.680455,0.000976995129 321.190073,11.4855547 321.190073,26.0549946 C321.190073,40.626877 309.680455,52.1114547 295.071246,52.1114547 C280.540384,52.1114547 268.954868,40.626877 268.954868,26.0549946 Z" id="Shape-Copy-3"></path>
                </g>
            </g>
        </g>
    </g>
</svg>